<?xml version="1.0" standalone="no"?>
<!DOCTYPE svg PUBLIC "-//W3C//DTD SVG 20010904//EN"
 "http://www.w3.org/TR/2001/REC-SVG-20010904/DTD/svg10.dtd">
<svg version="1.0" xmlns="http://www.w3.org/2000/svg"
 width="1600.000000pt" height="1600.000000pt" viewBox="0 0 1600.000000 1600.000000"
 preserveAspectRatio="xMidYMid meet">
<metadata>
Created by potrace 1.14, written by Peter Selinger 2001-2017
</metadata>
<g transform="translate(0.000000,1600.000000) scale(0.100000,-0.100000)"
fill="#000000" stroke="none">
<path d="M0 8000 l0 -8000 305 0 306 0 -41 61 c-62 90 -97 173 -130 302 -83
327 -75 953 17 1342 80 339 246 650 496 930 134 150 393 400 517 501 19 15 58
48 86 74 174 156 1057 864 1440 1153 99 75 189 146 200 158 19 21 19 21 -16
51 -19 16 -78 59 -130 95 -174 121 -294 261 -360 419 -55 133 -72 215 -73 359
-3 400 176 714 527 924 120 71 231 102 423 116 102 8 103 8 103 95 1 133 78
442 141 560 60 112 148 218 268 319 82 70 121 95 301 196 l125 70 -1 70 c-1
58 -8 89 -43 178 -53 134 -103 191 -258 296 -304 207 -555 434 -716 648 -277
371 -389 764 -332 1162 44 296 147 526 343 761 137 164 383 347 557 416 39 15
74 30 79 35 4 4 -5 69 -22 146 -61 278 -72 373 -72 628 0 256 23 447 91 753
122 550 395 1111 766 1575 116 144 403 441 558 575 510 441 1066 723 1745 886
138 33 199 45 505 97 138 24 313 39 330 29 6 -3 19 -5 30 -4 74 10 175 12 175
3 0 -5 19 -8 43 -8 39 1 40 2 12 9 -28 7 -28 8 -5 9 34 1 351 -39 460 -58 934
-168 1589 -485 2257 -1091 312 -284 597 -655 794 -1035 218 -418 386 -999 423
-1460 30 -364 19 -567 -45 -850 -17 -77 -34 -156 -36 -175 l-5 -35 117 -70
c165 -99 228 -149 351 -278 219 -229 350 -466 412 -747 122 -552 -25 -991
-483 -1445 -192 -190 -294 -275 -465 -387 -156 -101 -207 -145 -232 -199 -20
-42 -58 -246 -58 -311 0 -68 15 -79 258 -205 138 -70 167 -91 289 -207 184
-175 289 -413 348 -792 14 -93 27 -169 28 -170 1 -2 38 2 82 8 91 11 230 4
322 -17 280 -65 578 -350 681 -651 61 -178 72 -426 28 -599 -38 -148 -98 -262
-196 -370 -141 -157 -225 -223 -412 -325 -54 -30 -98 -56 -98 -60 0 -15 168
-167 365 -330 116 -96 300 -253 411 -350 110 -96 301 -263 425 -370 804 -699
1112 -1132 1289 -1816 68 -263 84 -404 85 -744 0 -272 -2 -303 -23 -397 -44
-199 -84 -295 -162 -391 l-51 -62 276 0 275 0 0 8000 0 8000 -8000 0 -8000 0
0 -8000z"/>
<path d="M7790 15354 c-325 -43 -653 -132 -1028 -280 -319 -126 -624 -311
-937 -570 -196 -161 -531 -527 -672 -734 -226 -331 -443 -891 -498 -1281 -34
-248 -41 -526 -14 -631 10 -37 33 -54 61 -43 13 5 16 -49 22 -412 3 -230 9
-430 12 -445 5 -23 1 -29 -32 -46 -22 -11 -93 -36 -159 -56 -293 -90 -447
-176 -595 -333 -288 -304 -329 -743 -107 -1132 72 -125 123 -192 222 -294 190
-195 396 -331 684 -454 199 -85 191 -80 191 -116 0 -48 47 -318 76 -432 42
-168 141 -458 202 -595 20 -42 20 -45 3 -56 -9 -7 -117 -58 -240 -113 -455
-207 -583 -286 -640 -399 -49 -97 -109 -334 -132 -523 l-11 -91 43 -86 c38
-77 43 -97 47 -173 3 -68 0 -101 -16 -155 -12 -38 -26 -88 -32 -111 -8 -33
-15 -43 -32 -43 -26 0 -142 42 -205 74 -81 40 -213 76 -303 83 -213 14 -382
-72 -462 -235 -28 -57 -33 -78 -36 -164 -10 -228 86 -370 348 -520 46 -26 140
-70 375 -173 162 -71 215 -97 222 -108 12 -20 -387 -398 -822 -777 -66 -57
-170 -149 -230 -205 -61 -55 -159 -143 -220 -195 -60 -52 -150 -131 -199 -175
-50 -44 -152 -132 -226 -195 -160 -135 -411 -355 -495 -434 l-60 -56 60 -57
c227 -218 951 -742 1063 -770 21 -5 46 16 176 144 83 82 175 170 205 194 82
67 309 225 373 259 l56 30 119 -92 c65 -50 154 -121 198 -158 178 -148 356
-260 414 -260 17 0 57 35 150 131 69 72 184 179 255 237 72 59 151 126 177
150 58 53 72 49 161 -44 42 -45 114 -101 218 -169 85 -57 177 -125 204 -151
27 -27 102 -119 166 -205 65 -86 140 -175 167 -198 56 -48 182 -115 209 -109
52 10 58 261 10 433 -26 94 -76 244 -119 355 -41 106 -87 275 -87 318 0 32 11
56 49 114 99 146 232 298 262 298 6 0 36 -24 67 -54 127 -119 280 -215 380
-238 45 -10 55 -9 63 3 5 8 9 75 8 149 0 109 -7 178 -38 360 l-37 225 25 4
c28 3 165 -9 436 -39 94 -10 198 -22 233 -26 34 -3 71 -13 83 -22 26 -22 32
-51 69 -352 58 -472 109 -801 146 -927 35 -119 86 -156 207 -150 72 3 80 6
112 37 68 66 92 172 130 575 42 445 75 707 93 745 24 49 71 70 157 70 39 0 88
6 110 14 22 8 125 19 229 26 236 16 221 27 209 -150 -4 -69 -8 -208 -8 -310 0
-211 6 -234 69 -246 51 -9 116 25 291 153 139 101 279 193 296 193 8 0 105
-119 147 -182 48 -70 112 -208 112 -240 0 -35 -27 -107 -105 -283 -140 -314
-206 -662 -149 -785 12 -25 31 -54 42 -64 20 -17 25 -18 56 -5 19 8 95 72 168
144 238 232 836 752 911 791 l28 15 131 -128 c72 -70 189 -198 262 -283 72
-85 154 -179 182 -209 51 -55 52 -55 79 -41 16 8 49 33 74 56 25 22 84 70 131
105 47 36 132 102 190 148 58 45 169 125 247 177 108 73 147 94 163 89 11 -4
85 -73 163 -153 208 -215 398 -401 432 -423 60 -38 121 -17 310 106 119 78
431 297 574 403 145 108 263 182 326 203 27 10 51 21 52 26 2 5 -49 56 -114
114 -421 372 -1204 1118 -1593 1515 -177 182 -362 398 -357 419 1 5 38 22 82
36 123 41 445 165 555 213 346 154 483 328 467 595 -5 81 -10 104 -41 165 -94
190 -262 265 -506 225 -70 -11 -200 -54 -344 -114 -151 -63 -204 -57 -245 30
-58 123 -66 275 -24 430 44 163 37 310 -24 515 -54 180 -104 261 -207 335 -67
48 -350 190 -541 272 -242 104 -275 121 -275 142 0 11 9 44 20 73 69 185 125
430 160 693 28 215 39 246 115 304 33 25 116 73 185 107 237 115 417 242 576
406 136 140 196 222 265 363 73 150 100 248 106 390 12 246 -59 450 -228 659
-149 185 -440 359 -638 382 l-61 7 0 184 c0 144 -3 183 -12 177 -10 -6 -10 -4
0 7 14 16 16 33 2 24 -5 -3 -10 -2 -10 4 0 5 5 11 12 13 9 3 12 65 13 230 1
226 6 262 37 255 17 -3 26 45 38 186 24 310 7 496 -80 862 -87 363 -313 831
-535 1105 -212 262 -386 445 -549 581 -49 41 -104 86 -122 101 -56 48 -265
188 -374 251 -344 198 -853 381 -1235 442 -280 45 -738 59 -965 29z m724 -304
c330 -27 605 -90 879 -199 215 -86 223 -89 362 -167 402 -224 741 -514 1040
-888 161 -201 366 -575 440 -806 26 -80 58 -176 72 -215 31 -89 79 -288 93
-384 9 -66 8 -75 -7 -87 -43 -33 -49 -20 -123 261 -82 310 -142 475 -250 688
-178 353 -331 561 -611 829 -264 253 -485 415 -751 548 -89 45 -199 96 -243
115 -205 84 -467 151 -780 197 -141 21 -702 17 -880 -6 -410 -52 -749 -164
-1130 -374 -262 -143 -477 -305 -704 -526 -271 -266 -427 -479 -590 -803 -138
-274 -199 -437 -276 -738 -20 -77 -40 -144 -45 -149 -6 -6 -17 -3 -29 8 -17
16 -20 16 -35 1 -14 -15 -15 -12 -10 32 14 120 76 374 129 528 88 258 249 551
453 825 146 196 447 501 622 631 360 267 639 419 969 529 275 92 473 133 711
149 181 12 556 12 694 1z m1930 -2162 c20 -152 42 -3363 24 -3548 l-10 -115
-67 -85 c-102 -131 -463 -551 -610 -710 -54 -59 -73 -73 -84 -65 -95 65 -365
327 -610 594 -196 213 -413 428 -441 437 -16 5 -30 -5 -70 -52 -113 -134 -192
-201 -288 -248 -146 -70 -249 -83 -360 -45 -94 31 -158 80 -262 197 -52 59
-108 115 -124 125 l-30 17 -149 -157 c-310 -328 -340 -360 -399 -428 -33 -38
-91 -103 -129 -143 -38 -41 -76 -83 -84 -95 -31 -46 -89 -107 -143 -150 l-55
-46 -109 112 c-60 62 -157 166 -216 232 -58 66 -152 172 -208 235 -140 158
-207 241 -221 275 -10 23 -12 400 -10 1680 1 907 5 1652 8 1655 2 3 453 5
1001 5 549 0 1012 4 1030 9 18 5 32 15 32 24 0 17 32 121 57 187 13 35 34 93
48 133 3 9 260 12 1239 12 l1235 0 5 -42z m1113 -1660 c-3 -8 -6 -5 -6 6 -1
11 2 17 5 13 3 -3 4 -12 1 -19z m195 -688 c29 -11 92 -49 140 -85 220 -165
324 -378 298 -606 -22 -190 -142 -361 -395 -565 -121 -97 -238 -177 -308 -210
-42 -19 -68 -24 -139 -24 -83 0 -90 2 -120 29 l-33 29 0 514 0 513 50 32 c118
76 166 114 273 223 62 63 123 127 135 142 26 33 31 34 99 8z m-7168 -27 c62
-76 273 -279 324 -313 l52 -35 -2 -492 c-3 -563 3 -525 -98 -575 -147 -73
-349 8 -573 230 -97 96 -173 194 -225 292 -57 106 -76 178 -76 285 1 161 47
261 183 395 106 104 321 250 369 250 8 0 29 -17 46 -37z m6305 -3438 c-11 -24
-35 -68 -54 -97 -19 -29 -35 -57 -35 -62 0 -5 -17 -32 -38 -60 -21 -28 -72
-98 -113 -156 -62 -88 -158 -212 -178 -230 -4 -3 -35 -41 -71 -85 -87 -108
-170 -202 -257 -291 -40 -40 -73 -78 -73 -84 0 -5 -4 -10 -8 -10 -9 0 -66 -48
-131 -108 -41 -39 -258 -208 -302 -235 -60 -39 -25 -6 114 105 78 63 177 147
219 187 47 44 82 70 89 65 7 -4 9 -3 6 2 -3 6 36 53 86 106 238 249 421 474
573 703 54 83 103 153 107 156 5 3 8 9 7 13 -1 7 69 126 75 126 2 0 -5 -20
-16 -45z m-5649 21 c0 -2 -7 -7 -16 -10 -8 -3 -12 -2 -9 4 6 10 25 14 25 6z
m6234 -164 c-10 -3 -114 56 -114 64 0 2 28 -11 63 -29 34 -17 57 -33 51 -35z
m-6544 -2 c-8 -5 -19 -10 -25 -10 -5 0 -3 5 5 10 8 5 20 10 25 10 6 0 3 -5 -5
-10z m6710 -35 c88 -20 96 -24 50 -21 -30 2 -75 9 -100 16 -25 6 -53 12 -62
13 -20 1 -25 17 -5 16 6 0 59 -11 117 -24z m-6973 -61 c-3 -3 -12 -4 -19 -1
-8 3 -5 6 6 6 11 1 17 -2 13 -5z m1123 -15 c0 -4 -7 -6 -15 -3 -8 4 -15 10
-15 15 0 4 7 6 15 3 8 -4 15 -10 15 -15z m-1190 -9 c0 -5 -4 -10 -10 -10 -5 0
-10 5 -10 10 0 6 5 10 10 10 6 0 10 -4 10 -10z m1364 -121 c-2 -5 -14 -1 -24
9 -26 22 -25 24 5 10 13 -6 22 -15 19 -19z m66 -24 c18 -10 20 -14 8 -15 -9 0
-20 5 -23 10 -4 6 -11 8 -16 5 -5 -4 -9 -1 -9 4 0 14 10 13 40 -4z m113 -61
c182 -91 275 -128 755 -299 52 -18 96 -36 100 -39 10 -10 -17 -6 -55 8 -21 8
-55 17 -75 21 -20 3 -38 10 -40 15 -2 5 -19 11 -40 12 -20 2 -34 6 -31 11 2 4
-3 8 -11 8 -17 2 -33 5 -41 9 -11 5 -32 5 -79 -1 -42 -5 -49 -3 -54 13 -3 11
-13 18 -30 18 -14 0 -23 3 -19 6 8 8 -18 34 -33 34 -13 0 -62 30 -72 45 -5 6
-8 5 -8 -3 0 -7 -5 -10 -10 -7 -6 4 -8 10 -5 14 5 9 -89 46 -143 57 -17 3 -33
12 -35 19 -6 14 -90 59 -129 69 -16 3 -28 11 -28 16 0 15 4 13 83 -26z m3797
-180 c-18 -35 -40 -70 -48 -76 -8 -7 -1 10 15 37 17 28 37 67 44 88 7 21 15
33 17 27 2 -6 -10 -40 -28 -76z m-14 69 c-9 -9 -89 -33 -94 -29 -3 4 75 34 92
35 5 1 6 -2 2 -6z m-107 -37 c-13 -14 -299 -110 -305 -103 -3 2 60 27 138 55
130 46 179 60 167 48z m21 -129 c0 -1 -39 -41 -87 -87 l-88 -85 85 88 c79 81
90 92 90 84z m-443 -23 c-3 -3 -12 -4 -19 -1 -8 3 -5 6 6 6 11 1 17 -2 13 -5z
m-38 -8 c-8 -8 -171 -67 -238 -87 -115 -33 -75 -13 76 39 143 49 171 57 162
48z m-359 -126 c-8 -5 -22 -9 -30 -9 -10 0 -8 3 5 9 27 12 43 12 25 0z m-300
-97 c-25 -8 -83 -30 -130 -48 -82 -32 -121 -43 -185 -51 -32 -4 -176 -30 -237
-44 -20 -4 -52 -4 -70 -1 -28 6 -21 9 42 15 94 9 352 68 490 112 58 18 112 33
120 33 8 0 -5 -7 -30 -16z m-1823 -47 c59 -13 259 -94 288 -118 5 -4 39 -27
75 -50 132 -85 256 -235 317 -383 105 -255 87 -582 -46 -829 -83 -156 -129
-204 -321 -339 -66 -46 -61 -65 25 -101 39 -16 86 -33 105 -37 19 -4 45 -10
58 -13 12 -3 20 -1 17 3 -2 5 -26 14 -52 20 -86 21 -224 81 -188 81 6 0 33 -9
62 -20 52 -20 453 -122 527 -135 l38 -6 -7 -102 c-8 -128 -30 -243 -51 -274
-16 -26 -35 -27 -194 -10 -175 19 -540 82 -724 127 -204 49 -572 171 -796 265
-74 31 -157 65 -185 75 -78 27 -472 203 -652 290 l-163 78 6 49 c10 87 33 207
54 278 11 38 20 87 20 107 0 21 2 38 4 38 2 0 62 -28 132 -61 378 -180 703
-326 782 -351 69 -22 87 -32 87 -49 0 -19 101 -132 165 -184 140 -113 270
-174 433 -202 47 -8 29 4 -25 17 -110 26 -223 74 -309 131 -87 59 -222 192
-242 239 -6 14 -45 102 -87 195 -95 210 -116 296 -107 447 14 233 107 431 282
596 207 197 442 276 672 228z m1160 -82 c-3 -3 -12 -4 -19 -1 -8 3 -5 6 6 6
11 1 17 -2 13 -5z m1325 -77 c-6 -7 -33 -28 -59 -47 -56 -39 -47 -26 17 24 49
38 59 43 42 23z m2444 -174 c-10 -10 -19 5 -10 18 6 11 8 11 12 0 2 -7 1 -15
-2 -18z m-7236 -26 c0 -5 -4 -5 -10 -2 -5 3 -10 14 -10 23 0 15 2 15 10 2 5
-8 10 -19 10 -23z m-818 -2 c29 -13 72 -38 95 -56 49 -37 119 -48 187 -29 l44
12 119 -72 c65 -40 152 -96 193 -123 41 -28 92 -61 113 -73 37 -21 38 -22 14
-27 -29 -8 -68 -77 -92 -162 -26 -94 -76 -245 -81 -245 -3 0 -25 15 -49 33
-24 19 -92 56 -152 83 -241 109 -459 225 -523 277 -144 118 -162 287 -39 376
52 39 99 40 171 6z m5933 -15 c-3 -5 -16 -15 -28 -21 -19 -9 -19 -8 3 10 28
23 34 26 25 11z m3261 -5 c38 -26 67 -111 62 -181 -5 -75 -20 -95 -118 -159
-58 -38 -498 -248 -670 -320 -36 -15 -97 -45 -137 -66 -40 -22 -76 -39 -80
-39 -5 0 -16 39 -25 88 -10 48 -35 156 -58 241 -22 85 -39 155 -37 156 1 1
103 47 227 103 177 80 236 102 270 102 25 0 88 10 140 21 127 27 287 57 330
62 68 7 76 7 96 -8z m-3941 -33 c-58 -48 -146 -111 -120 -85 19 19 117 93 123
93 3 0 2 -4 -3 -8z m-4305 -59 c0 -7 -58 36 -66 49 -4 7 9 -1 29 -16 20 -16
37 -30 37 -33z m4920 53 c0 -6 -138 -116 -146 -116 -8 0 26 31 76 69 19 14 41
32 48 39 13 12 22 15 22 8z m-803 -137 c-59 -51 -77 -85 -77 -144 0 -55 19
-96 58 -124 50 -35 71 -34 150 4 40 19 70 30 67 25 -4 -6 -34 -23 -68 -40 -34
-16 -60 -30 -57 -30 33 -8 48 -8 65 -1 37 15 85 29 85 25 0 -3 -19 -14 -42
-24 -80 -36 -204 -17 -251 40 -21 25 -24 36 -20 100 2 40 11 86 20 104 17 34
90 106 107 106 6 0 -10 -19 -37 -41z m643 7 c0 -3 -4 -8 -10 -11 -5 -3 -10 -1
-10 4 0 6 5 11 10 11 6 0 10 -2 10 -4z m2351 -390 c37 -183 27 -229 -61 -270
-27 -13 -57 -29 -66 -37 -14 -12 -19 -10 -35 10 -11 13 -19 18 -19 12 0 -6 0
-14 0 -18 0 -5 5 -8 10 -8 6 0 11 -4 13 -10 1 -5 -38 -24 -88 -41 -49 -17
-100 -36 -112 -42 -13 -7 -24 -8 -28 -3 -7 12 -81 341 -90 401 l-7 45 149 67
c81 37 177 78 213 92 l65 24 18 -62 c9 -33 26 -106 38 -160z m-2631 200 c0 -3
-4 -8 -10 -11 -5 -3 -10 -1 -10 4 0 6 5 11 10 11 6 0 10 -2 10 -4z m-105 -16
c-3 -5 -16 -15 -28 -21 -21 -10 -21 -9 2 10 25 23 36 27 26 11z m-4355 -59
c186 -79 250 -110 250 -119 0 -5 -9 -35 -20 -68 -12 -32 -39 -128 -61 -213
-22 -85 -41 -156 -43 -158 -4 -5 -302 142 -321 157 -8 7 -13 22 -10 34 18 78
74 348 79 379 4 20 8 37 9 37 2 0 54 -22 117 -49z m6475 -231 c16 -75 58 -282
69 -351 6 -34 4 -37 -26 -49 -18 -8 -98 -43 -178 -78 -180 -80 -347 -147 -560
-223 -91 -33 -187 -69 -215 -79 -398 -154 -1180 -403 -1395 -445 -47 -9 -128
-25 -180 -35 -102 -20 -382 -45 -406 -36 -11 4 -14 30 -14 124 0 132 12 221
36 269 21 41 48 51 276 108 634 159 939 252 1653 503 391 137 758 285 858 347
29 17 55 29 58 26 4 -3 14 -40 24 -81z m-2488 -526 c-3 -3 -12 -4 -19 -1 -8 3
-5 6 6 6 11 1 17 -2 13 -5z m-284 -61 c-7 -2 -19 -2 -25 0 -7 3 -2 5 12 5 14
0 19 -2 13 -5z m-330 -455 c-3 -112 -8 -219 -12 -238 -7 -34 -8 -35 -59 -38
-28 -2 -61 2 -73 9 -22 11 -22 13 -16 207 4 108 12 201 17 206 7 7 10 4 10 -9
0 -18 0 -18 15 1 20 26 19 36 -5 32 -10 -2 -20 2 -22 7 -3 9 44 17 129 23 l22
2 -6 -202z"/>
<path d="M6335 11392 c-57 -5 -75 -12 -110 -44 -85 -74 -109 -226 -42 -273 26
-18 163 -20 472 -5 153 8 272 8 440 -1 312 -16 302 -17 326 8 52 52 39 175
-27 252 -62 72 -57 71 -571 69 -252 -2 -471 -4 -488 -6z"/>
<path d="M9049 11390 c-87 -15 -140 -56 -186 -145 -18 -36 -26 -66 -26 -104 0
-49 4 -58 32 -83 38 -34 89 -37 166 -11 45 16 101 18 520 18 l470 0 25 45 c53
96 17 230 -73 271 -39 17 -71 18 -462 18 -231 -1 -441 -5 -466 -9z"/>
<path d="M6720 10853 c-188 -32 -350 -153 -444 -333 -48 -90 -51 -148 -11
-190 36 -37 94 -55 144 -43 32 8 42 19 93 103 117 192 186 244 328 245 67 0
83 -4 151 -38 42 -21 87 -49 100 -63 27 -28 39 -30 82 -8 42 22 47 30 47 84
-1 119 -87 201 -249 236 -62 13 -185 17 -241 7z"/>
<path d="M9321 10849 c-103 -18 -165 -55 -222 -133 -25 -34 -29 -48 -29 -105
0 -78 14 -104 66 -121 19 -7 37 -10 38 -8 2 1 13 22 25 45 24 49 64 73 158 97
71 19 142 20 198 5 54 -15 155 -119 223 -231 29 -48 62 -94 74 -102 29 -20 87
-20 137 0 95 38 86 146 -23 291 -84 111 -204 199 -336 245 -65 23 -227 32
-309 17z"/>
<path d="M4528 10533 c7 -3 16 -2 19 1 4 3 -2 6 -13 5 -11 0 -14 -3 -6 -6z"/>
<path d="M6670 5850 c-78 -11 -144 -39 -231 -97 -139 -94 -245 -233 -296 -388
-22 -68 -26 -98 -26 -200 0 -143 20 -248 69 -353 78 -170 197 -293 364 -375
l105 -52 105 0 105 0 105 53 c229 114 355 251 433 468 71 199 58 378 -41 569
-53 102 -191 237 -297 292 -141 72 -273 100 -395 83z"/>
<path d="M7076 4221 c-4 -7 -5 -15 -2 -18 9 -9 19 4 14 18 -4 11 -6 11 -12 0z"/>
<path d="M6505 4170 c-4 -6 3 -10 14 -10 25 0 27 6 6 13 -8 4 -17 2 -20 -3z"/>
<path d="M6895 4170 c-3 -5 -15 -10 -25 -10 -13 0 -18 -7 -17 -20 1 -11 2 -20
3 -20 1 0 16 14 34 30 18 17 27 30 22 30 -6 0 -14 -4 -17 -10z"/>
<path d="M6290 4156 c0 -2 7 -6 15 -10 8 -3 15 -1 15 4 0 6 -7 10 -15 10 -8 0
-15 -2 -15 -4z"/>
<path d="M6580 4141 c0 -20 70 -41 122 -37 29 3 72 5 96 5 36 1 42 4 42 22 0
19 -4 21 -37 15 -98 -15 -163 -18 -192 -8 -17 6 -31 7 -31 3z"/>
<path d="M7478 4133 c7 -3 16 -2 19 1 4 3 -2 6 -13 5 -11 0 -14 -3 -6 -6z"/>
<path d="M6970 4030 c0 -5 7 -10 16 -10 8 0 12 5 9 10 -3 6 -10 10 -16 10 -5
0 -9 -4 -9 -10z"/>
<path d="M7038 4033 c7 -3 16 -2 19 1 4 3 -2 6 -13 5 -11 0 -14 -3 -6 -6z"/>
<path d="M11745 4830 c-3 -6 1 -7 9 -4 18 7 21 14 7 14 -6 0 -13 -4 -16 -10z"/>
<path d="M8011 3994 c0 -11 3 -14 6 -6 3 7 2 16 -1 19 -3 4 -6 -2 -5 -13z"/>
<path d="M11050 1110 c0 -5 5 -10 11 -10 5 0 7 5 4 10 -3 6 -8 10 -11 10 -2 0
-4 -4 -4 -10z"/>
<path d="M10430 1070 c0 -5 5 -10 10 -10 6 0 10 5 10 10 0 6 -4 10 -10 10 -5
0 -10 -4 -10 -10z"/>
</g>
</svg>
